<svg width="160" height="18" viewBox="0 0 160 18" fill="none" xmlns="http://www.w3.org/2000/svg">
<path d="M11.3113 4.712V17H6.00725V4.712H0.58325V0.487999H16.7113V4.712H11.3113ZM19.1276 0.487999H33.4076V4.448H24.4316V6.728H32.1116V10.52H24.4316V13.04H33.5756V17H19.1276V0.487999ZM44.3199 0.199999C46.7679 0.199999 48.7039 0.815999 50.1279 2.048C51.5519 3.264 52.2639 5.008 52.2639 7.28H47.1999C47.1999 6.32 46.9439 5.56 46.4319 5C45.9359 4.44 45.2239 4.16 44.2959 4.16C43.2239 4.16 42.4319 4.496 41.9199 5.168C41.4239 5.84 41.1759 6.776 41.1759 7.976V9.512C41.1759 10.696 41.4239 11.632 41.9199 12.32C42.4319 12.992 43.2079 13.328 44.2479 13.328C45.2719 13.328 46.0479 13.064 46.5759 12.536C47.1039 12.008 47.3679 11.264 47.3679 10.304H52.2639C52.2639 12.56 51.5679 14.288 50.1759 15.488C48.7999 16.688 46.8479 17.288 44.3199 17.288C41.5039 17.288 39.3679 16.568 37.9119 15.128C36.4719 13.688 35.7519 11.56 35.7519 8.744C35.7519 5.928 36.4719 3.8 37.9119 2.36C39.3679 0.919999 41.5039 0.199999 44.3199 0.199999ZM66.2636 17V10.736H60.4316V17H55.1276V0.487999H60.4316V6.512H66.2636V0.487999H71.5676V17H66.2636ZM94.9199 17L87.9839 8.984V17H83.1119V0.487999H87.7439L94.6799 8.624V0.487999H99.5519V17H94.9199ZM103.104 0.487999H117.384V4.448H108.408V6.728H116.088V10.52H108.408V13.04H117.552V17H103.104V0.487999ZM132.832 17L130.696 6.944H130.6L128.464 17H122.632L118.768 0.487999H124.288L126.184 9.848H126.28L128.152 0.487999H133.384L135.376 9.848H135.472L137.248 0.487999H142.528L138.664 17H132.832ZM151.36 0.199999C153.472 0.199999 155.208 0.631999 156.568 1.496C157.928 2.344 158.624 3.608 158.656 5.288V5.576H153.688V5.48C153.688 5 153.512 4.6 153.16 4.28C152.808 3.96 152.272 3.8 151.552 3.8C150.848 3.8 150.304 3.904 149.92 4.112C149.552 4.32 149.368 4.576 149.368 4.88C149.368 5.312 149.624 5.632 150.136 5.84C150.648 6.048 151.472 6.264 152.608 6.488C153.936 6.76 155.024 7.048 155.872 7.352C156.736 7.64 157.488 8.12 158.128 8.792C158.768 9.464 159.096 10.376 159.112 11.528C159.112 13.48 158.448 14.928 157.12 15.872C155.808 16.816 154.048 17.288 151.84 17.288C149.264 17.288 147.256 16.856 145.816 15.992C144.392 15.128 143.68 13.6 143.68 11.408H148.696C148.696 12.24 148.912 12.8 149.344 13.088C149.776 13.36 150.448 13.496 151.36 13.496C152.032 13.496 152.584 13.424 153.016 13.28C153.464 13.136 153.688 12.84 153.688 12.392C153.688 11.992 153.44 11.696 152.944 11.504C152.464 11.296 151.672 11.08 150.568 10.856C149.224 10.568 148.112 10.272 147.232 9.968C146.352 9.648 145.584 9.128 144.928 8.408C144.272 7.688 143.944 6.712 143.944 5.48C143.944 3.672 144.64 2.344 146.032 1.496C147.44 0.631999 149.216 0.199999 151.36 0.199999Z" fill="#60A5FA"/>
</svg>
